<?xml version="1.0" encoding="utf-8"?>
<!-- Generator: Adobe Illustrator 24.0.3, SVG Export Plug-In . SVG Version: 6.00 Build 0)  -->
<svg version="1.1" id="Layer_1" xmlns="http://www.w3.org/2000/svg" xmlns:xlink="http://www.w3.org/1999/xlink" x="0px" y="0px"
	 viewBox="0 0 940.7 940.7" enable-background="new 0 0 940.7 940.7" xml:space="preserve">
<path fill="#1C1B1A" d="M486.3,470c0-8.8-7.2-16-16-16c-8.8,0-16,7.2-16,16c0,8.8,7.2,16,16,16C479.1,486,486.3,478.8,486.3,470"/>
<g>
	
		<rect x="486.6" y="377.9" transform="matrix(0.7071 -0.7071 0.7071 0.7071 -113.6304 504.0631)" fill="#1C1B1A" width="130.1" height="22.6"/>
	<circle fill="none" cx="470.7" cy="470.3" r="183"/>
</g>
<g>
	<g>
		<path fill="#1C1B1A" d="M482.1,481.3c6.2-6.2,6.2-16.4,0-22.6c-6.2-6.2-16.4-6.2-22.6,0s-6.2,16.4,0,22.6
			C465.7,487.5,475.9,487.5,482.1,481.3"/>
		<rect x="459" y="218.5" fill="#1C1B1A" width="22.6" height="202.3"/>
	</g>
	<circle fill="none" cx="470.7" cy="470.3" r="255"/>
</g>
<path fill="#1C1B1A" d="M470.3,882.9C236.5,882.9,62.5,702.1,62.5,471c0-232.4,174-413.2,407.8-413.2S878.1,238.6,878.1,471
	C878.1,702.1,704.1,882.9,470.3,882.9 M470.3,3.4C205.3,3.4,0,210,0,471s203.9,466.3,470.3,466.3c265.1,0,470.3-205.3,470.3-466.3
	S735.4,3.4,470.3,3.4"/>
</svg>
